PathFileType	4	(X/Y/Z)	2014001\dynamic\2014001_C1_05.trc
DataRate	CameraRate	NumFrames	NumMarkers	Units	OrigDataRate	OrigDataStartFrame	OrigNumFrames
100.000000	100.000000	4	52	mm	100.000000	480	549
Frame#	Time	L_IAS			L_IPS			R_IPS			R_IAS			L_FTC			L_FLE			L_FME			L_FAX			L_TTC			L_FAL			L_TAM			L_FCC			L_FM1			L_FM2			L_FM5			R_FTC			R_FLE			R_FME			R_FAX			R_TTC			R_FAL			R_TAM			R_FCC			R_FM1			R_FM2			R_FM5			CV7			TV10			SXS			SJN			L_SIA			L_SRS			L_SAA			L_SAE			L_HLE			L_HME			L_UOA			L_RSP			L_UHE			L_HM2			L_HM5			R_SIA			R_SRS			R_SAA			R_SAE			R_HLE			R_HME			R_UOA			R_RSP			R_UHE			R_HM2			R_HM5			
		X1	Y1	Z1	X2	Y2	Z2	X3	Y3	Z3	X4	Y4	Z4	X5	Y5	Z5	X6	Y6	Z6	X7	Y7	Z7	X8	Y8	Z8	X9	Y9	Z9	X10	Y10	Z10	X11	Y11	Z11	X12	Y12	Z12	X13	Y13	Z13	X14	Y14	Z14	X15	Y15	Z15	X16	Y16	Z16	X17	Y17	Z17	X18	Y18	Z18	X19	Y19	Z19	X20	Y20	Z20	X21	Y21	Z21	X22	Y22	Z22	X23	Y23	Z23	X24	Y24	Z24	X25	Y25	Z25	X26	Y26	Z26	X27	Y27	Z27	X28	Y28	Z28	X29	Y29	Z29	X30	Y30	Z30	X31	Y31	Z31	X32	Y32	Z32	X33	Y33	Z33	X34	Y34	Z34	X35	Y35	Z35	X36	Y36	Z36	X37	Y37	Z37	X38	Y38	Z38	X39	Y39	Z39	X40	Y40	Z40	X41	Y41	Z41	X42	Y42	Z42	X43	Y43	Z43	X44	Y44	Z44	X45	Y45	Z45	X46	Y46	Z46	X47	Y47	Z47	X48	Y48	Z48	X49	Y49	Z49	X50	Y50	Z50	X51	Y51	Z51	X52	Y52	Z52	

481	4.8	430.7609863281252	870.676147460938	1314.968017578125	363.5876464843751	919.0236816406255	1136.918701171875	273.8202209472657	921.1428833007817	1128.584716796875	188.233383178711	888.8974609375005	1301.466064453125	481.1753845214846	784.2717285156255	1234.603149414063	416.8658142089846	431.9488830566409	1223.49072265625	301.6625061035157	434.0191955566409	1241.620727539063	415.339050292969	370.8160705566407	1200.264526367188	364.1306762695314	352.4827880859376	1257.493286132813	344.1942138671876	60.67049026489261	1139.469482421875	256.5081481933595	75.08827209472659	1161.164916992188	296.8545227050782	23.46599960327149	1093.692749023438	271.8977050781251	28.41703033447267	1272.709716796875	334.1846313476564	37.69525146484376	1282.173583984375	381.6845092773439	24.55579566955568	1227.682006835938	129.5968627929688	799.4837036132817	1204.514770507813	114.4786529541016	453.977966308594	1240.56591796875	229.7532958984376	420.4208984375002	1272.711547851563	109.847038269043	412.8496704101565	1197.328125	143.7029113769532	363.8494567871095	1255.259643554688	151.7899780273438	181.5936126708985	984.3051147460942	224.8089904785157	159.8865356445313	1035.920166015625	215.3667144775392	167.1499481201172	935.9537963867192	184.0647735595704	53.48614883422854	1077.857299804688	125.1608657836915	68.17751312255862	1072.113159179688	100.9344787597657	89.98343658447268	1016.122619628907	315.5197753906251	1386.525756835938	1168.97900390625	327.874725341797	1152.847778320313	1099.107788085938	323.9353637695314	1155.104125976563	1335.955444335938	318.5129394531251	1316.557739257813	1293.652465820313	420.1640319824221	1195.27294921875	1100.816650390625	407.524841308594	1326.335693359375	1123.469482421875	513.5469360351565	1327.246337890625	1200.569702148438	496.7893676757815	1336.794799804688	1241.0087890625	582.938659667969	1054.493041992188	1204.73095703125	508.775085449219	1021.036865234375	1177.148803710938	558.5231933593752	1018.414672851563	1171.994018554688	541.8345947265627	834.6835937500005	1320.2734375	609.0643310546877	826.009643554688	1273.913818359375	550.3115844726565	758.1835937500002	1360.87060546875	611.9804687500002	747.495056152344	1278.23193359375	210.5751495361329	1194.647705078125	1092.916625976563	229.8520812988282	1317.89697265625	1124.073364257813	125.6684875488282	1308.776123046875	1200.223754882813	137.3933105468751	1312.108642578125	1249.230102539063	66.33965301513675	1011.281860351563	1196.44873046875	143.1151733398438	994.6146850585942	1172.97314453125	96.65103149414068	986.8099975585942	1167.72021484375	91.97357940673831	813.5049438476567	1313.081420898438	31.68173599243165	804.723999023438	1258.723266601563	68.07071685791018	737.134948730469	1358.724853515625	29.32144737243654	725.6197509765627	1261.624877929688	
482	4.81	431.1674804687502	870.4744262695317	1316.404663085938	363.6192321777345	918.754760742188	1138.59130859375	273.8779602050782	921.0270385742192	1130.346801757813	188.7072906494141	889.1333007812505	1303.432006835938	481.3587341308596	783.990356445313	1235.78759765625	416.8834228515627	431.8161621093752	1224.201538085938	301.6813354492189	433.8237915039065	1242.461791992188	415.3147888183596	370.7042846679689	1200.894409179688	364.1441040039064	352.2926025390626	1258.103393554688	344.1370239257814	60.64925003051761	1139.557495117188	256.2535095214845	74.93923950195315	1161.232421875	296.9263916015626	23.65524864196778	1093.863037109375	271.8986206054689	28.31480216979982	1272.710693359375	334.1909179687501	37.6637535095215	1282.203002929688	381.6954956054689	24.57162857055665	1227.664306640625	129.7693786621094	799.5808105468755	1206.857421875	114.9911575317383	453.9721984863284	1245.6298828125	230.5141906738282	420.7929687500002	1277.163330078125	109.9162368774415	412.1423950195315	1203.330322265625	144.4868316650391	364.1085510253907	1261.22314453125	150.7742309570313	177.8442077636719	992.8319702148442	224.0307922363282	157.0548400878907	1044.231811523438	213.7087402343751	162.3192901611329	944.090209960938	182.9649963378907	52.24045562744143	1089.069702148438	124.1722869873047	67.28453063964847	1083.344482421875	99.74255371093756	87.68659973144534	1027.033569335938	316.0640563964845	1386.433349609375	1170.54833984375	328.2012634277345	1152.733764648438	1100.68505859375	324.494598388672	1155.01220703125	1337.504150390625	319.1230773925782	1316.43994140625	1295.204956054688	420.502136230469	1195.099365234375	1102.233032226563	407.9824829101565	1326.203735351563	1124.9189453125	514.0777587890627	1327.042114257813	1201.905883789063	497.3946533203127	1336.58251953125	1242.369995117188	583.3110961914065	1054.254150390625	1205.7646484375	509.118347167969	1020.799194335938	1178.347778320313	558.868835449219	1018.287231445313	1172.951049804688	542.2017822265627	834.1890258789067	1320.7998046875	609.4141235351565	825.609497070313	1274.463134765625	550.6795043945315	757.5794677734377	1361.190307617188	612.3088378906252	747.0874633789065	1278.503295898438	211.0187988281251	1194.609619140625	1094.473388671875	230.3326721191407	1317.860473632813	1125.692993164063	126.2079315185547	1308.779541015625	1201.8681640625	137.904281616211	1312.064819335938	1250.887817382813	66.72063446044925	1011.581665039063	1196.796875	143.5029602050782	994.9584960937505	1173.401977539063	97.05577087402349	987.436645507813	1167.920654296875	91.17358398437503	812.4116210937505	1311.049438476563	31.07224464416505	804.4946289062505	1256.300048828125	66.81924438476565	735.498474121094	1355.52783203125	28.39023208618165	725.3267211914065	1258.232055664063	
483	4.82	431.5084228515627	870.2692260742192	1317.867797851563	363.6630249023439	918.5071411132817	1140.252197265625	273.9397277832032	920.9194335937505	1132.08544921875	189.1340332031251	889.3704223632817	1305.368286132813	481.4991149902346	783.716430664063	1237.0458984375	416.8726196289065	431.6840820312502	1224.895751953125	301.6626586914064	433.6335144042971	1243.238647460938	415.2798767089846	370.6026611328126	1201.494384765625	364.1225891113282	352.1131286621095	1258.679931640625	344.0897521972657	60.63428115844729	1139.64404296875	255.9998474121095	74.8023376464844	1161.277587890625	297.0154418945314	23.85505294799805	1094.02490234375	271.8887023925782	28.19187927246095	1272.703125	334.1712341308595	37.62863922119142	1282.241455078125	381.698699951172	24.59767341613771	1227.645141601563	129.9089660644532	799.6688842773442	1209.129760742188	115.4979629516602	453.9927368164065	1250.651245117188	231.2740020751954	421.1943664550784	1281.592163085938	110.0058975219727	411.4580993652346	1209.250610351563	145.2555084228516	364.3941955566407	1267.18359375	149.7427062988282	173.9877319335938	1001.583923339844	223.2320861816407	154.1085510253907	1052.78076171875	212.059783935547	157.3180694580079	952.531372070313	181.8836822509766	50.92976379394534	1100.431762695313	123.2118301391602	66.33703613281253	1094.737670898438	98.56455230712896	85.31752014160159	1038.145263671875	316.5762634277345	1386.339477539063	1172.1005859375	328.5084533691407	1152.615600585938	1102.255004882813	325.011688232422	1154.930908203125	1339.0517578125	319.7003784179689	1316.331665039063	1296.744995117188	420.8034973144534	1194.916381835938	1103.64013671875	408.4026489257815	1326.062866210938	1126.354736328125	514.5712890625002	1326.83447265625	1203.220581054688	497.9677429199221	1336.369018554688	1243.712036132813	583.6624145507815	1054.022705078125	1206.766479492188	509.4407958984377	1020.552612304688	1179.52880859375	559.195983886719	1018.165405273438	1173.88232421875	542.5711059570315	833.6928100585942	1321.282470703125	609.7639770507815	825.2177124023442	1274.966674804688	551.044860839844	756.9600219726565	1361.42724609375	612.6464843750002	746.6839599609377	1278.726318359375	211.4314727783204	1194.56494140625	1096.026489257813	230.7787628173829	1317.822387695313	1127.300170898438	126.7135620117188	1308.78857421875	1203.49951171875	138.3805389404297	1312.034301757813	1252.532348632813	67.06973266601565	1011.893859863282	1197.176879882813	143.8711853027344	995.3151245117192	1173.84765625	97.4366073608399	988.070190429688	1168.160766601563	90.38688659667972	811.3751831054692	1309.044799804688	30.47273445129396	804.3214721679692	1253.924194335938	65.60016632080081	733.946472167969	1352.3515625	27.47040748596193	725.1065063476565	1254.898559570313	
484	4.83	431.7878417968752	870.063354492188	1319.354614257813	363.7208557128907	918.2836914062505	1141.894165039063	274.0054321289064	920.8174438476567	1133.797729492188	189.5142211914063	889.601928710938	1307.266357421875	481.5965881347659	783.4553222656255	1238.381103515625	416.8389282226565	431.5559997558596	1225.563232421875	301.6227416992189	433.4540710449221	1243.957763671875	415.2381896972659	370.5158081054689	1202.050537109375	364.0785522460939	351.9461669921876	1259.215454101563	344.0522766113282	60.62731933593753	1139.723266601563	255.7679443359376	74.69185638427737	1161.3017578125	297.1109924316407	24.05604171752931	1094.169067382813	271.8694152832032	28.05682754516603	1272.688232421875	334.1286621093751	37.5890350341797	1282.288818359375	381.6952514648439	24.62992477416994	1227.626342773438	130.0143432617188	799.7456054687505	1211.338623046875	115.9953765869141	454.0371398925784	1255.626220703125	232.0246734619142	421.6236267089846	1286.0048828125	110.1261978149415	410.8046875000002	1215.06591796875	146.0015869140626	364.7102050781251	1273.130249023438	148.7079620361329	170.0456848144532	1010.55810546875	222.4268341064454	151.0640869140626	1061.568115234375	210.4499664306642	152.1568756103516	961.2817993164067	180.819564819336	49.57180404663089	1111.965454101563	122.2812118530274	65.35608673095706	1106.298828125	97.41027832031256	82.89619445800784	1049.4580078125	317.0563354492189	1386.245483398438	1173.639526367188	328.7972717285157	1152.496215820313	1103.817993164063	325.4838867187501	1154.858642578125	1340.598266601563	320.2418823242189	1316.23291015625	1298.274780273438	421.0714416503909	1194.728271484375	1105.04150390625	408.787292480469	1325.915161132813	1127.78271484375	515.0273437500002	1326.625854492188	1204.522705078125	498.5068664550784	1336.15576171875	1245.043579101563	583.9905395507815	1053.799682617188	1207.743408203125	509.7409973144534	1020.3037109375	1180.689697265625	559.5019531250002	1018.05078125	1174.794921875	542.9396972656252	833.1943359375005	1321.723388671875	610.111511230469	824.834350585938	1275.42041015625	551.4027099609377	756.3222656250002	1361.574584960938	612.9920043945315	746.2860107421877	1278.901245117188	211.8143463134767	1194.518310546875	1097.573608398438	231.1920013427736	1317.784301757813	1128.895263671875	127.1850204467774	1308.803588867188	1205.115600585938	138.8211059570313	1312.0166015625	1254.161865234375	67.38923645019534	1012.215759277344	1197.584838867188	144.2232055664063	995.6819458007817	1174.313354492188	97.79656982421881	988.7055664062505	1168.441528320313	89.61312103271487	810.4039916992192	1307.08642578125	29.88453865051271	804.2033691406255	1251.616821289063	64.41242218017581	732.4868774414065	1349.224731445313	26.56607246398927	724.9589843750002	1251.646362304688	
